<?xml version="1.0" encoding="utf-8"?>
<!-- Generator: Adobe Illustrator 21.1.0, SVG Export Plug-In . SVG Version: 6.00 Build 0)  -->
<svg version="1.1" id="Layer_1" xmlns="http://www.w3.org/2000/svg" xmlns:xlink="http://www.w3.org/1999/xlink" x="0px" y="0px"
	 viewBox="0 0 85 113.4" style="enable-background:new 0 0 85 113.4;" xml:space="preserve">
<g>
	<g>
		<path fill="black" d="M68.1,0c-3.2,0.2-5.7,3.1-5.4,6.3L65,21.1l-18.8,9h-8.5l-18.8-9l2.3-15c0.2-3-2.2-5.9-5.4-6.1c-0.2,0-0.3,0-0.5,0
			c-3,0-5.6,2.3-5.9,5.4L7.2,24.6c0,2.5,1.2,4.6,3.4,5.8l18.6,8.9L29,63.1l-15,42.2c-0.9,3.2,0.7,6.6,3.9,7.8c3,0.9,6.6-0.9,7.8-3.9
			l16.3-45l16.3,45.1c1.2,3,4.8,4.8,7.9,3.8c3-1.2,4.6-4.5,3.7-7.9L54.8,62.2V39.4l18.7-9c2-1.1,3.2-3.3,3.2-6.1L74.4,5.4
			C74.2,2.2,71.3-0.2,68.1,0z"/>
	</g>
	<g>
		<circle fill="black" cx="42" cy="15" r="10.3"/>
	</g>
</g>
</svg>
